<?xml version="1.0" encoding="UTF-8" standalone="no"?>
<!DOCTYPE svg PUBLIC "-//W3C//DTD SVG 1.1//EN" "http://www.w3.org/Graphics/SVG/1.1/DTD/svg11.dtd">
<svg width="100%" height="100%" viewBox="0 0 500 500" version="1.1" xmlns="http://www.w3.org/2000/svg" xmlns:xlink="http://www.w3.org/1999/xlink" xml:space="preserve" xmlns:serif="http://www.serif.com/" style="fill-rule:evenodd;clip-rule:evenodd;stroke-linejoin:round;stroke-miterlimit:2;">
    <g transform="matrix(1,0,0,1,-3.052529,-2.127178)">
        <g transform="matrix(1.375,0,0,1.375,-450.855099,-118.237856)">
            <path d="M429.514,92.848C437.035,92.845 436.996,92.915 444.5,92.625C447.167,92.614 449.834,92.604 452.501,92.594C459.514,92.742 459.442,92.843 466.498,92.678C472.038,92.622 471.994,92.629 477.503,92.648C481.02,92.71 481.606,92.84 489.499,92.668C494.537,92.633 494.488,92.612 499.503,92.619C507.013,92.707 506.951,92.713 514.499,92.615C519.047,92.608 518.998,92.61 523.502,92.646C530.042,92.738 529.984,92.752 536.5,92.659C541.525,92.637 541.47,92.632 546.502,92.642C550.893,92.694 550.857,92.815 560.5,92.628C577.924,92.602 577.872,92.697 595.487,92.865C613.565,94.003 617.368,94.911 628.465,97.613C628.828,97.749 635.342,99.928 639.316,101.962C642.189,103.428 642.158,103.392 643.19,103.965C646.824,106.349 646.923,106.096 650.436,108.597C651.148,109.153 655.978,112.924 659.022,115.923C660.369,117.269 660.31,117.286 665.13,122.773C669.465,128.759 671.658,132.549 674.337,138.574C674.745,139.498 676.419,143.283 678.449,150.517C679.832,156.474 679.906,156.388 680.857,162.471C681.354,167.516 681.363,167.446 681.819,172.463C683.086,195.461 682.831,195.412 682.892,219.475C682.898,223.488 682.903,227.502 682.909,231.515C682.801,320.115 683.265,339.022 682.443,360.5C682.248,363.843 682.053,367.186 681.857,370.529C681.697,373.062 680.719,388.541 674.189,401.315C672.711,404.463 671.355,406.805 671.086,407.27C664.545,417.469 662.882,418.54 658.336,423.324C657.289,424.268 657.368,424.268 656.278,425.25C656.193,425.327 656.198,425.319 655.198,426.176C649.054,431.659 641.942,435.313 640.698,435.953C639.155,436.721 629.879,441.341 620.443,443.265C618.456,443.581 616.469,443.896 614.483,444.211C609.93,444.705 609.981,444.756 605.448,445.145C601.421,445.469 601.491,445.471 597.497,445.714C593.958,445.843 594.031,445.849 590.508,445.923C584.983,445.946 585.039,445.779 579.514,446.07C577.17,446.078 574.826,446.086 572.482,446.094C567.471,446.081 567.523,446.075 562.516,446.103C559.837,446.103 557.157,446.103 554.478,446.103C549.973,446.103 550.015,446.088 545.52,446.119C542.841,446.112 540.162,446.104 537.483,446.096C524.962,446.022 524.999,446.086 512.478,446.116C507.493,446.087 507.531,446.087 502.517,446.111C500.173,446.11 497.828,446.109 495.484,446.108C490.457,446.078 490.504,446.085 485.514,446.114C483.17,446.111 480.826,446.109 478.483,446.107C473.458,446.076 473.508,446.075 468.515,446.094C465.836,446.095 463.157,446.096 460.478,446.097C457.827,446.095 455.175,446.094 452.523,446.092C449.842,446.088 447.161,446.084 444.48,446.079C440.004,446.008 440.048,446.031 435.559,446C430.493,445.826 426.301,445.643 425.496,445.608C422.007,445.329 422.064,445.306 418.546,445.137C414.507,444.779 414.577,444.773 410.52,444.259C407.886,443.854 405.252,443.448 402.619,443.042C392.906,440.211 392.844,440.447 383.656,436.104C376.013,431.862 360.205,422.681 350.224,401.613C349.766,400.764 347.547,396.645 345.721,390.425C342.434,379.226 342.917,379.172 342.021,367.528C341.822,363.508 341.78,363.56 341.606,359.492C340.338,325.204 341.425,301.752 340.988,288.5C340.841,284.035 340.983,257.222 340.997,254.502C341.317,194.103 340.314,189.907 343.104,162.468C344.17,155.928 344.303,156.009 345.735,149.584C347.657,144.017 347.409,143.977 349.786,138.604C352.53,132.927 352.277,132.858 355.709,127.612C359.644,121.602 365.189,116.05 366.107,115.13C372.331,108.898 379.962,104.707 380.437,104.401C380.836,104.16 380.811,104.22 385.594,101.696C390.472,99.359 390.508,99.61 395.582,97.758C401.223,96.441 408.074,94.137 429.514,92.848Z" style="fill:rgb(24,31,56);"/>
        </g>
        <g transform="matrix(1.375,0,0,1.375,-450.855099,-118.237856)">
            <path d="M593.204,214.308C603.52,201.934 613.708,212.493 614.42,219.505C614.802,223.27 615.118,231.981 616.106,242.536C617.173,253.934 617.868,267.312 617.98,269.469C620.008,297.968 619.466,297.954 621.987,326.465C623.444,348.01 623.945,347.927 625.103,369.53C625.278,372.785 625.157,372.731 625.556,379.496C625.737,382.565 625.687,382.5 626.097,385.522C626.287,386.925 625.552,387.35 625.505,387.507C623.014,385.514 622.543,384.921 622.33,384.654C621.475,383.578 616.866,379.093 616.38,378.62C548.838,312.907 543.11,305.549 541.41,305.68C541.41,305.68 539.36,307.461 539.182,307.616C536.397,304.207 526.232,295.005 452.652,220.352C406.482,173.509 406.537,173.546 402.462,169.541C399.882,167.006 392.523,161.158 397.416,154.424C398.241,153.288 403.329,150.025 408.379,154.636C412.501,158.401 511.71,258.672 547.495,293.505C550.099,296.281 550.967,297.204 554.112,294.08C557.405,290.809 559.464,290.092 556.135,286.866C551.566,282.437 436.245,166.003 433.752,163.285C433.02,162.487 427.398,156.358 424.295,153.594C423.71,153.073 423.849,152.972 424.186,152.288C424.585,151.479 424.827,151.358 435.451,151.981C437.578,152.106 438.266,152.146 455.523,169.479C483.167,197.168 510.811,224.857 538.455,252.546C565.532,279.694 565.316,280.164 566.54,280.225C567.146,280.256 567.9,280.294 572.395,275.403C575.719,271.787 571.75,270.282 566.833,265.181C565.218,263.505 478.883,175.351 463.746,160.249C456.831,153.35 456.488,153.348 456.765,152.565C457.194,151.356 468.449,152.193 468.569,152.215C472.163,152.864 494.666,177.853 500.852,183.069C502.975,184.859 502.695,185.113 525.489,207.511C544.662,226.35 544.224,226.734 563.394,245.605C579.12,261.087 578.787,261.563 580.571,262.256C582.019,262.817 582.259,261.802 585.731,243.548C585.94,242.453 587.144,237.933 587.273,237.447C588.002,233.458 587.998,233.507 588.93,229.609C589.354,227.89 589.777,226.171 590.2,224.452C590.387,224.72 589.881,225.155 590.068,225.423C590.886,226.604 591.442,226.822 592.042,225.5C593.131,223.102 593.251,223.145 593.42,220.491C593.523,218.882 593.583,218.945 594.089,217.386C594.137,217.241 594.55,215.968 594.365,215.5C594.162,214.984 593.407,214.824 593.204,214.308Z" style="fill:rgb(97,215,174);"/>
        </g>
        <g transform="matrix(1.375,0,0,1.375,-450.855099,-118.237856)">
            <path d="M521.768,305.17C521.542,305.675 520.999,305.995 520.773,306.5C520.421,307.286 520.915,307.167 522.802,309.038C523.153,309.385 523.381,309.873 523.802,310.131C524.069,310.295 524.521,309.998 524.737,310.224C524.944,310.439 524.608,310.858 524.75,311.12C524.793,311.199 526.748,312.993 526.836,313.034C526.997,313.109 526.984,312.973 528.884,312.18C531.826,315.073 532.648,315.494 535.619,312.628C538.986,309.38 538.707,309.159 539.182,307.616C539.36,307.461 541.41,305.68 541.41,305.68C543.11,305.549 548.838,312.907 616.38,378.62C616.866,379.093 621.475,383.578 622.33,384.654C622.543,384.921 623.014,385.514 625.505,387.507C621.679,387.869 617.466,388.268 577.531,385.021C575.866,384.886 567.346,384.008 566.461,383.917C557.428,383.143 502.979,379.304 497.458,378.915C464.759,376.046 455.311,378.614 452.12,368.628C449.753,361.221 454.177,356.627 454.902,355.874C457.026,354.337 457.011,354.383 459.345,353.136C461.072,354.786 460.857,355.304 462.493,355.289C465.513,355.261 465.472,355.348 468.499,355.389C474.93,355.474 468.683,353.079 468.5,353.032C466.718,352.571 466.826,352.428 465.434,351.229C466.634,350.945 501.581,341.141 504.49,340.466C508.192,339.607 505.021,337.599 480.944,313.066C465.605,297.404 450.265,281.742 434.926,266.08C397.4,227.689 396.319,227.967 395.883,223.474C394.961,213.982 395.697,213.709 396.478,213.729C397.287,213.75 435.771,252.734 443.305,259.694C446.663,262.795 469.468,285.974 471.729,288.273C472.436,288.991 500.203,316.352 507.852,324.167C509.814,326.172 509.745,326.156 511.762,328.114C511.904,328.651 510.696,328.963 510.837,329.5C511.066,330.371 512.089,330.797 512.652,331.5C512.908,331.819 514.455,333.75 517.5,333.107C522.163,332.122 521.688,330.104 522.953,328.5C523.166,328.23 523.622,327.946 523.5,327.624C523.255,326.978 522.302,326.782 522.058,326.136C523.238,322.081 520.711,322.776 513.056,313.865C512.94,313.73 463.712,263.921 459.421,259.579C454.491,254.591 398.728,198.169 397.895,197.123C395.88,194.59 395.945,194.386 395.371,182.488C395.16,178.105 398.446,182.461 406.617,190.377C412.82,196.387 473.329,257.12 477.263,260.76C481.556,264.733 503.493,286.931 505.758,289.222C513.72,297.278 513.832,297.109 521.768,305.17Z" style="fill:rgb(68,211,155);"/>
        </g>
        <g transform="matrix(1.375,0,0,1.375,-450.855099,-118.237856)">
            <path d="M522.058,326.136C522.302,326.782 523.255,326.978 523.5,327.624C523.622,327.946 523.166,328.23 522.953,328.5C521.688,330.104 522.163,332.122 517.5,333.107C514.455,333.75 512.908,331.819 512.652,331.5C512.089,330.797 511.066,330.371 510.837,329.5C510.696,328.963 511.904,328.651 511.762,328.114C515.268,330.958 516.021,332.35 519.219,329.182C519.463,328.941 521.832,326.381 522.058,326.136Z" style="fill:rgb(94,204,159);"/>
        </g>
        <g transform="matrix(1.375,0,0,1.375,-450.855099,-118.237856)">
            <path d="M465.434,351.229C466.826,352.428 466.718,352.571 468.5,353.032C468.683,353.079 474.93,355.474 468.499,355.389C465.472,355.348 465.513,355.261 462.493,355.289C460.857,355.304 461.072,354.786 459.345,353.136L460.553,352.637C462.18,352.168 463.807,351.698 465.434,351.229Z" style="fill:rgb(93,213,159);"/>
        </g>
        <g transform="matrix(1.375,0,0,1.375,-450.855099,-118.237856)">
            <path d="M593.204,214.308C593.407,214.824 594.162,214.984 594.365,215.5C594.55,215.968 594.137,217.241 594.089,217.386C593.583,218.945 593.523,218.882 593.42,220.491C593.251,223.145 593.131,223.102 592.042,225.5C591.442,226.822 590.886,226.604 590.068,225.423C589.881,225.155 590.387,224.72 590.2,224.452C591.231,219.198 590.914,219.123 593.204,214.308Z" style="fill:rgb(101,214,169);"/>
        </g>
        <g transform="matrix(1.375,0,0,1.375,-450.855099,-118.237856)">
            <path d="M570.116,282.573C571.944,281.351 572.393,279.972 576.691,283.078C579.529,285.129 577.716,285.656 577.5,285.694C575.028,286.126 575.2,285.304 574.5,284.936C574.205,284.781 573.82,284.869 573.5,284.964C573.096,285.084 572.802,285.64 572.387,285.563C571.561,285.41 570.252,282.84 570.116,282.573Z" style="fill:rgb(85,217,159);"/>
        </g>
        <g transform="matrix(1.375,0,0,1.375,-450.855099,-118.237856)">
            <path d="M521.768,305.17C525.46,308.55 525.414,308.535 528.884,312.18C526.984,312.973 526.997,313.109 526.836,313.034C526.748,312.993 524.793,311.199 524.75,311.12C524.608,310.858 524.944,310.439 524.737,310.224C524.521,309.998 524.069,310.295 523.802,310.131C523.381,309.873 523.153,309.385 522.802,309.038C520.915,307.167 520.421,307.286 520.773,306.5C520.999,305.995 521.542,305.675 521.768,305.17Z" style="fill:rgb(100,203,160);"/>
        </g>
    </g>
</svg>
